<?xml version="1.0" encoding="UTF-8" standalone="no"?>
<!DOCTYPE svg PUBLIC "-//W3C//DTD SVG 1.1//EN"
 "http://www.w3.org/Graphics/SVG/1.1/DTD/svg11.dtd">
<!-- Generated by graphviz version 2.47.0 (20210316.0004)
 -->
<!-- Title: dependencies Pages: 1 -->
<svg width="833pt" height="284pt"
 viewBox="0.00 0.00 833.00 284.00" xmlns="http://www.w3.org/2000/svg" xmlns:xlink="http://www.w3.org/1999/xlink">
<g id="graph0" class="graph" transform="scale(1 1) rotate(0) translate(4 280)">
<title>dependencies</title>
<polygon fill="white" stroke="transparent" points="-4,4 -4,-280 829,-280 829,4 -4,4"/>
<text text-anchor="start" x="391.51" y="-42.4" font-family="Times-12" font-weight="bold" font-size="14.00">Legend</text>
<polygon fill="#ffffb3" stroke="transparent" points="178.5,-10 178.5,-30 198.5,-30 198.5,-10 178.5,-10"/>
<text text-anchor="start" x="202.13" y="-15.4" font-family="Times-12" font-size="14.00"> &#160;Declarations</text>
<polygon fill="#8dd3c7" stroke="transparent" points="291.5,-10 291.5,-30 311.5,-30 311.5,-10 291.5,-10"/>
<text text-anchor="start" x="315.23" y="-15.4" font-family="Times-12" font-size="14.00"> &#160;Module</text>
<polygon fill="#80b1d3" stroke="transparent" points="377.5,-10 377.5,-30 397.5,-30 397.5,-10 377.5,-10"/>
<text text-anchor="start" x="401.28" y="-15.4" font-family="Times-12" font-size="14.00"> &#160;Bootstrap</text>
<polygon fill="#fdb462" stroke="transparent" points="474.5,-10 474.5,-30 494.5,-30 494.5,-10 474.5,-10"/>
<text text-anchor="start" x="498.17" y="-15.4" font-family="Times-12" font-size="14.00"> &#160;Providers</text>
<polygon fill="#fb8072" stroke="transparent" points="570.5,-10 570.5,-30 590.5,-30 590.5,-10 570.5,-10"/>
<text text-anchor="start" x="594.23" y="-15.4" font-family="Times-12" font-size="14.00"> &#160;Exports</text>
<g id="clust1" class="cluster">
<title>cluster_AppModule</title>
<polygon fill="none" stroke="black" stroke-dasharray="1,5" points="8,-70 8,-268 817,-268 817,-70 8,-70"/>
</g>
<g id="clust2" class="cluster">
<title>cluster_AppModule_declarations</title>
<polygon fill="none" stroke="black" points="375,-78 375,-130 809,-130 809,-78 375,-78"/>
</g>
<g id="clust4" class="cluster">
<title>cluster_AppModule_imports</title>
<polygon fill="none" stroke="black" points="16,-78 16,-130 367,-130 367,-78 16,-78"/>
</g>
<g id="clust6" class="cluster">
<title>cluster_AppModule_bootstrap</title>
<polygon fill="none" stroke="black" points="233,-208 233,-260 357,-260 357,-208 233,-208"/>
</g>
<!-- AppComponent -->
<g id="node1" class="node">
<title>AppComponent</title>
<polygon fill="#ffffb3" stroke="black" points="800.94,-122 695.06,-122 695.06,-86 800.94,-86 800.94,-122"/>
<text text-anchor="middle" x="748" y="-99.8" font-family="Times,serif" font-size="14.00">AppComponent</text>
</g>
<!-- AppModule -->
<g id="node2" class="node">
<title>AppModule</title>
<polygon fill="#8dd3c7" stroke="black" points="336.66,-187 333.66,-191 312.66,-191 309.66,-187 253.34,-187 253.34,-151 336.66,-151 336.66,-187"/>
<text text-anchor="middle" x="295" y="-164.8" font-family="Times,serif" font-size="14.00">AppModule</text>
</g>
<!-- AppComponent&#45;&gt;AppModule -->
<g id="edge1" class="edge">
<title>AppComponent&#45;&gt;AppModule</title>
<path fill="none" stroke="black" d="M748,-122.28C748,-143.32 748,-175 748,-175 748,-175 346.81,-175 346.81,-175"/>
<polygon fill="black" stroke="black" points="346.81,-171.5 336.81,-175 346.81,-178.5 346.81,-171.5"/>
</g>
<!-- AppComponent&#45;&gt;AppModule -->
<g id="edge4" class="edge">
<title>AppComponent&#45;&gt;AppModule</title>
<path fill="none" stroke="black" d="M721.64,-122.11C721.64,-141.34 721.64,-169 721.64,-169 721.64,-169 346.68,-169 346.68,-169"/>
<polygon fill="black" stroke="black" points="346.68,-165.5 336.68,-169 346.68,-172.5 346.68,-165.5"/>
</g>
<!-- AppComponent&#45;&gt;AppModule -->
<g id="edge10" class="edge">
<title>AppComponent&#45;&gt;AppModule</title>
<path fill="none" stroke="black" d="M774.36,-122.25C774.36,-145.02 774.36,-181 774.36,-181 774.36,-181 346.7,-181 346.7,-181"/>
<polygon fill="black" stroke="black" points="346.7,-177.5 336.7,-181 346.7,-184.5 346.7,-177.5"/>
</g>
<!-- AppComponent  -->
<g id="node4" class="node">
<title>AppComponent </title>
<polygon fill="#80b1d3" stroke="black" points="349.44,-252 240.56,-252 240.56,-216 349.44,-216 349.44,-252"/>
<text text-anchor="middle" x="295" y="-229.8" font-family="Times,serif" font-size="14.00">AppComponent </text>
</g>
<!-- AppModule&#45;&gt;AppComponent  -->
<g id="edge3" class="edge">
<title>AppModule&#45;&gt;AppComponent </title>
<path fill="none" stroke="black" stroke-dasharray="1,5" d="M295,-187.11C295,-187.11 295,-205.99 295,-205.99"/>
<polygon fill="black" stroke="black" points="291.5,-205.99 295,-215.99 298.5,-205.99 291.5,-205.99"/>
</g>
<!-- AppModule&#45;&gt;AppComponent  -->
<g id="edge9" class="edge">
<title>AppModule&#45;&gt;AppComponent </title>
<path fill="none" stroke="black" stroke-dasharray="1,5" d="M274.09,-187.11C274.09,-187.11 274.09,-205.99 274.09,-205.99"/>
<polygon fill="black" stroke="black" points="270.59,-205.99 274.09,-215.99 277.59,-205.99 270.59,-205.99"/>
</g>
<!-- AppModule&#45;&gt;AppComponent  -->
<g id="edge14" class="edge">
<title>AppModule&#45;&gt;AppComponent </title>
<path fill="none" stroke="black" stroke-dasharray="1,5" d="M315.91,-187.11C315.91,-187.11 315.91,-205.99 315.91,-205.99"/>
<polygon fill="black" stroke="black" points="312.41,-205.99 315.91,-215.99 319.41,-205.99 312.41,-205.99"/>
</g>
<!-- AppRoutingModule -->
<g id="node3" class="node">
<title>AppRoutingModule</title>
<polygon fill="#8dd3c7" stroke="black" points="359.27,-122 356.27,-126 335.27,-126 332.27,-122 230.73,-122 230.73,-86 359.27,-86 359.27,-122"/>
<text text-anchor="middle" x="295" y="-99.8" font-family="Times,serif" font-size="14.00">AppRoutingModule</text>
</g>
<!-- AppRoutingModule&#45;&gt;AppModule -->
<g id="edge2" class="edge">
<title>AppRoutingModule&#45;&gt;AppModule</title>
<path fill="none" stroke="black" d="M315.91,-122.11C315.91,-122.11 315.91,-140.99 315.91,-140.99"/>
<polygon fill="black" stroke="black" points="312.41,-140.99 315.91,-150.99 319.41,-140.99 312.41,-140.99"/>
</g>
<!-- AppRoutingModule&#45;&gt;AppModule -->
<g id="edge7" class="edge">
<title>AppRoutingModule&#45;&gt;AppModule</title>
<path fill="none" stroke="black" d="M295,-122.11C295,-122.11 295,-140.99 295,-140.99"/>
<polygon fill="black" stroke="black" points="291.5,-140.99 295,-150.99 298.5,-140.99 291.5,-140.99"/>
</g>
<!-- AppRoutingModule&#45;&gt;AppModule -->
<g id="edge11" class="edge">
<title>AppRoutingModule&#45;&gt;AppModule</title>
<path fill="none" stroke="black" d="M274.09,-122.11C274.09,-122.11 274.09,-140.99 274.09,-140.99"/>
<polygon fill="black" stroke="black" points="270.59,-140.99 274.09,-150.99 277.59,-140.99 270.59,-140.99"/>
</g>
<!-- GridContentComponent -->
<g id="node5" class="node">
<title>GridContentComponent</title>
<polygon fill="#ffffb3" stroke="black" points="677.82,-122 526.18,-122 526.18,-86 677.82,-86 677.82,-122"/>
<text text-anchor="middle" x="602" y="-99.8" font-family="Times,serif" font-size="14.00">GridContentComponent</text>
</g>
<!-- GridContentComponent&#45;&gt;AppModule -->
<g id="edge5" class="edge">
<title>GridContentComponent&#45;&gt;AppModule</title>
<path fill="none" stroke="black" d="M602,-122.02C602,-139.37 602,-163 602,-163 602,-163 346.72,-163 346.72,-163"/>
<polygon fill="black" stroke="black" points="346.72,-159.5 336.72,-163 346.72,-166.5 346.72,-159.5"/>
</g>
<!-- ToolbarComponent -->
<g id="node6" class="node">
<title>ToolbarComponent</title>
<polygon fill="#ffffb3" stroke="black" points="508.65,-122 383.35,-122 383.35,-86 508.65,-86 508.65,-122"/>
<text text-anchor="middle" x="446" y="-99.8" font-family="Times,serif" font-size="14.00">ToolbarComponent</text>
</g>
<!-- ToolbarComponent&#45;&gt;AppModule -->
<g id="edge6" class="edge">
<title>ToolbarComponent&#45;&gt;AppModule</title>
<path fill="none" stroke="black" d="M446,-122.24C446,-137.57 446,-157 446,-157 446,-157 346.66,-157 346.66,-157"/>
<polygon fill="black" stroke="black" points="346.66,-153.5 336.66,-157 346.66,-160.5 346.66,-153.5"/>
</g>
<!-- YouTubePlayer -->
<g id="node7" class="node">
<title>YouTubePlayer</title>
<polygon fill="#8dd3c7" stroke="black" points="212.14,-122 209.14,-126 188.14,-126 185.14,-122 107.86,-122 107.86,-86 212.14,-86 212.14,-122"/>
<text text-anchor="middle" x="160" y="-99.8" font-family="Times,serif" font-size="14.00">YouTubePlayer</text>
</g>
<!-- YouTubePlayer&#45;&gt;AppModule -->
<g id="edge8" class="edge">
<title>YouTubePlayer&#45;&gt;AppModule</title>
<path fill="none" stroke="black" d="M142.56,-122.11C142.56,-141.34 142.56,-169 142.56,-169 142.56,-169 242.94,-169 242.94,-169"/>
<polygon fill="black" stroke="black" points="242.94,-172.5 252.94,-169 242.94,-165.5 242.94,-172.5"/>
</g>
<!-- YouTubePlayer&#45;&gt;AppModule -->
<g id="edge13" class="edge">
<title>YouTubePlayer&#45;&gt;AppModule</title>
<path fill="none" stroke="black" d="M177.44,-122.03C177.44,-138.4 177.44,-160 177.44,-160 177.44,-160 243.22,-160 243.22,-160"/>
<polygon fill="black" stroke="black" points="243.22,-163.5 253.22,-160 243.22,-156.5 243.22,-163.5"/>
</g>
<!-- MatCard -->
<g id="node8" class="node">
<title>MatCard</title>
<polygon fill="#8dd3c7" stroke="black" points="89.76,-122 86.76,-126 65.76,-126 62.76,-122 24.24,-122 24.24,-86 89.76,-86 89.76,-122"/>
<text text-anchor="middle" x="57" y="-99.8" font-family="Times,serif" font-size="14.00">MatCard</text>
</g>
<!-- MatCard&#45;&gt;AppModule -->
<g id="edge12" class="edge">
<title>MatCard&#45;&gt;AppModule</title>
<path fill="none" stroke="black" d="M57,-122.29C57,-144.21 57,-178 57,-178 57,-178 243.27,-178 243.27,-178"/>
<polygon fill="black" stroke="black" points="243.27,-181.5 253.27,-178 243.27,-174.5 243.27,-181.5"/>
</g>
</g>
</svg>
